<mxfile host="Electron" agent="Mozilla/5.0 (X11; Linux x86_64) AppleWebKit/537.36 (KHTML, like Gecko) draw.io/26.2.2 Chrome/134.0.6998.178 Electron/35.1.2 Safari/537.36" version="26.2.2">
  <diagram name="Page-1" id="eLMgBpXm14jH295Gbv5r">
    <mxGraphModel dx="1698" dy="1060" grid="1" gridSize="10" guides="1" tooltips="1" connect="1" arrows="1" fold="1" page="1" pageScale="1" pageWidth="1600" pageHeight="1600" math="0" shadow="0">
      <root>
        <mxCell id="0" />
        <mxCell id="1" parent="0" />
        <mxCell id="NFw2SGily9_NahTFV_Ep-25" value="Real valued samples read into buffer" style="rounded=0;whiteSpace=wrap;html=1;" vertex="1" parent="1">
          <mxGeometry x="20" y="320" width="120" height="60" as="geometry" />
        </mxCell>
        <mxCell id="NFw2SGily9_NahTFV_Ep-31" value="" style="edgeStyle=orthogonalEdgeStyle;rounded=0;orthogonalLoop=1;jettySize=auto;html=1;" edge="1" parent="1" source="NFw2SGily9_NahTFV_Ep-26" target="NFw2SGily9_NahTFV_Ep-30">
          <mxGeometry relative="1" as="geometry" />
        </mxCell>
        <mxCell id="NFw2SGily9_NahTFV_Ep-26" value="state == DONE, reset high" style="rhombus;whiteSpace=wrap;html=1;" vertex="1" parent="1">
          <mxGeometry x="350" y="310" width="80" height="80" as="geometry" />
        </mxCell>
        <mxCell id="NFw2SGily9_NahTFV_Ep-27" value="" style="endArrow=classic;html=1;rounded=0;" edge="1" parent="1" source="NFw2SGily9_NahTFV_Ep-25" target="NFw2SGily9_NahTFV_Ep-26">
          <mxGeometry width="50" height="50" relative="1" as="geometry">
            <mxPoint x="650" y="440" as="sourcePoint" />
            <mxPoint x="700" y="390" as="targetPoint" />
          </mxGeometry>
        </mxCell>
        <mxCell id="NFw2SGily9_NahTFV_Ep-29" style="edgeStyle=orthogonalEdgeStyle;rounded=0;orthogonalLoop=1;jettySize=auto;html=1;entryX=0.5;entryY=1;entryDx=0;entryDy=0;" edge="1" parent="1" source="NFw2SGily9_NahTFV_Ep-28" target="NFw2SGily9_NahTFV_Ep-26">
          <mxGeometry relative="1" as="geometry" />
        </mxCell>
        <mxCell id="NFw2SGily9_NahTFV_Ep-28" value="reset signal high" style="rounded=0;whiteSpace=wrap;html=1;" vertex="1" parent="1">
          <mxGeometry x="20" y="420" width="120" height="60" as="geometry" />
        </mxCell>
        <mxCell id="NFw2SGily9_NahTFV_Ep-33" value="" style="edgeStyle=orthogonalEdgeStyle;rounded=0;orthogonalLoop=1;jettySize=auto;html=1;" edge="1" parent="1" source="NFw2SGily9_NahTFV_Ep-30" target="NFw2SGily9_NahTFV_Ep-32">
          <mxGeometry relative="1" as="geometry" />
        </mxCell>
        <mxCell id="NFw2SGily9_NahTFV_Ep-30" value="load read buffer to internal read buffer" style="whiteSpace=wrap;html=1;" vertex="1" parent="1">
          <mxGeometry x="490" y="320" width="120" height="60" as="geometry" />
        </mxCell>
        <mxCell id="NFw2SGily9_NahTFV_Ep-36" value="" style="edgeStyle=orthogonalEdgeStyle;rounded=0;orthogonalLoop=1;jettySize=auto;html=1;" edge="1" parent="1" source="NFw2SGily9_NahTFV_Ep-32" target="NFw2SGily9_NahTFV_Ep-35">
          <mxGeometry relative="1" as="geometry" />
        </mxCell>
        <mxCell id="NFw2SGily9_NahTFV_Ep-32" value="propogate the READ state to all constituent units, master to COMPUTING state" style="whiteSpace=wrap;html=1;" vertex="1" parent="1">
          <mxGeometry x="490" y="440" width="120" height="60" as="geometry" />
        </mxCell>
        <mxCell id="NFw2SGily9_NahTFV_Ep-34" value="FFT" style="swimlane;whiteSpace=wrap;html=1;" vertex="1" parent="1">
          <mxGeometry x="225" y="560" width="650" height="290" as="geometry" />
        </mxCell>
        <mxCell id="NFw2SGily9_NahTFV_Ep-40" value="" style="edgeStyle=orthogonalEdgeStyle;rounded=0;orthogonalLoop=1;jettySize=auto;html=1;" edge="1" parent="NFw2SGily9_NahTFV_Ep-34" source="NFw2SGily9_NahTFV_Ep-35" target="NFw2SGily9_NahTFV_Ep-39">
          <mxGeometry relative="1" as="geometry" />
        </mxCell>
        <mxCell id="NFw2SGily9_NahTFV_Ep-35" value="Lowest level FFT reads in data" style="whiteSpace=wrap;html=1;" vertex="1" parent="NFw2SGily9_NahTFV_Ep-34">
          <mxGeometry x="265" y="50" width="120" height="60" as="geometry" />
        </mxCell>
        <mxCell id="NFw2SGily9_NahTFV_Ep-47" value="" style="edgeStyle=orthogonalEdgeStyle;rounded=0;orthogonalLoop=1;jettySize=auto;html=1;" edge="1" parent="NFw2SGily9_NahTFV_Ep-34" source="NFw2SGily9_NahTFV_Ep-39" target="NFw2SGily9_NahTFV_Ep-46">
          <mxGeometry relative="1" as="geometry" />
        </mxCell>
        <mxCell id="NFw2SGily9_NahTFV_Ep-39" value="Compute necessary values, load into internal registers" style="rounded=0;whiteSpace=wrap;html=1;" vertex="1" parent="NFw2SGily9_NahTFV_Ep-34">
          <mxGeometry x="265" y="130" width="120" height="60" as="geometry" />
        </mxCell>
        <mxCell id="NFw2SGily9_NahTFV_Ep-46" value="parent stages read all constituent data into sub-buffer" style="whiteSpace=wrap;html=1;rounded=0;" vertex="1" parent="NFw2SGily9_NahTFV_Ep-34">
          <mxGeometry x="265" y="210" width="120" height="60" as="geometry" />
        </mxCell>
        <mxCell id="NFw2SGily9_NahTFV_Ep-48" value="" style="shape=flexArrow;endArrow=classic;html=1;rounded=0;" edge="1" parent="NFw2SGily9_NahTFV_Ep-34" source="NFw2SGily9_NahTFV_Ep-46" target="NFw2SGily9_NahTFV_Ep-35">
          <mxGeometry width="50" height="50" relative="1" as="geometry">
            <mxPoint x="765" y="250" as="sourcePoint" />
            <mxPoint x="445" y="70" as="targetPoint" />
            <Array as="points">
              <mxPoint x="445" y="240" />
              <mxPoint x="445" y="160" />
              <mxPoint x="445" y="80" />
            </Array>
          </mxGeometry>
        </mxCell>
        <mxCell id="NFw2SGily9_NahTFV_Ep-49" value="Repeated psuedo-recursively&lt;div&gt;via generate statements&lt;br&gt;&lt;div&gt;&lt;br&gt;&lt;/div&gt;&lt;/div&gt;" style="text;html=1;align=center;verticalAlign=middle;resizable=0;points=[];autosize=1;strokeColor=none;fillColor=none;rotation=90;" vertex="1" parent="NFw2SGily9_NahTFV_Ep-34">
          <mxGeometry x="375" y="130" width="180" height="60" as="geometry" />
        </mxCell>
        <mxCell id="NFw2SGily9_NahTFV_Ep-51" value="" style="endArrow=classic;html=1;rounded=0;" edge="1" parent="1" source="NFw2SGily9_NahTFV_Ep-46" target="NFw2SGily9_NahTFV_Ep-52">
          <mxGeometry width="50" height="50" relative="1" as="geometry">
            <mxPoint x="760" y="680" as="sourcePoint" />
            <mxPoint x="950" y="510" as="targetPoint" />
            <Array as="points">
              <mxPoint x="550" y="900" />
              <mxPoint x="950" y="900" />
            </Array>
          </mxGeometry>
        </mxCell>
        <mxCell id="NFw2SGily9_NahTFV_Ep-54" value="" style="edgeStyle=orthogonalEdgeStyle;rounded=0;orthogonalLoop=1;jettySize=auto;html=1;" edge="1" parent="1" source="NFw2SGily9_NahTFV_Ep-52" target="NFw2SGily9_NahTFV_Ep-53">
          <mxGeometry relative="1" as="geometry" />
        </mxCell>
        <mxCell id="NFw2SGily9_NahTFV_Ep-52" value="read the highest level FFT output buffer" style="rounded=0;whiteSpace=wrap;html=1;" vertex="1" parent="1">
          <mxGeometry x="890" y="440" width="120" height="60" as="geometry" />
        </mxCell>
        <mxCell id="NFw2SGily9_NahTFV_Ep-56" value="" style="edgeStyle=orthogonalEdgeStyle;rounded=0;orthogonalLoop=1;jettySize=auto;html=1;" edge="1" parent="1" source="NFw2SGily9_NahTFV_Ep-53" target="NFw2SGily9_NahTFV_Ep-55">
          <mxGeometry relative="1" as="geometry" />
        </mxCell>
        <mxCell id="NFw2SGily9_NahTFV_Ep-53" value="Perform necessary bit truncation" style="whiteSpace=wrap;html=1;rounded=0;" vertex="1" parent="1">
          <mxGeometry x="890" y="320" width="120" height="60" as="geometry" />
        </mxCell>
        <mxCell id="NFw2SGily9_NahTFV_Ep-57" style="edgeStyle=orthogonalEdgeStyle;rounded=0;orthogonalLoop=1;jettySize=auto;html=1;" edge="1" parent="1" source="NFw2SGily9_NahTFV_Ep-55" target="NFw2SGily9_NahTFV_Ep-26">
          <mxGeometry relative="1" as="geometry" />
        </mxCell>
        <mxCell id="NFw2SGily9_NahTFV_Ep-55" value="set state = DONE" style="whiteSpace=wrap;html=1;rounded=0;" vertex="1" parent="1">
          <mxGeometry x="890" y="180" width="120" height="60" as="geometry" />
        </mxCell>
        <mxCell id="NFw2SGily9_NahTFV_Ep-58" value="Processor Top" style="swimlane;whiteSpace=wrap;html=1;" vertex="1" parent="1">
          <mxGeometry x="210" y="150" width="860" height="790" as="geometry" />
        </mxCell>
        <mxCell id="NFw2SGily9_NahTFV_Ep-64" value="FFTState" style="swimlane;whiteSpace=wrap;html=1;" vertex="1" parent="NFw2SGily9_NahTFV_Ep-58">
          <mxGeometry x="20" y="440" width="140" height="250" as="geometry" />
        </mxCell>
        <mxCell id="NFw2SGily9_NahTFV_Ep-44" value="DONE state" style="whiteSpace=wrap;html=1;rounded=0;" vertex="1" parent="NFw2SGily9_NahTFV_Ep-64">
          <mxGeometry x="10" y="180" width="120" height="60" as="geometry" />
        </mxCell>
        <mxCell id="NFw2SGily9_NahTFV_Ep-41" value="COMPUTING state&lt;br&gt;(signifies for current state to run computations)" style="whiteSpace=wrap;html=1;rounded=0;" vertex="1" parent="NFw2SGily9_NahTFV_Ep-64">
          <mxGeometry x="10" y="100" width="120" height="60" as="geometry" />
        </mxCell>
        <mxCell id="NFw2SGily9_NahTFV_Ep-37" value="READ state" style="rounded=0;whiteSpace=wrap;html=1;" vertex="1" parent="NFw2SGily9_NahTFV_Ep-64">
          <mxGeometry x="10" y="20" width="120" height="60" as="geometry" />
        </mxCell>
        <mxCell id="NFw2SGily9_NahTFV_Ep-45" value="" style="edgeStyle=orthogonalEdgeStyle;rounded=0;orthogonalLoop=1;jettySize=auto;html=1;" edge="1" parent="NFw2SGily9_NahTFV_Ep-64" source="NFw2SGily9_NahTFV_Ep-41" target="NFw2SGily9_NahTFV_Ep-44">
          <mxGeometry relative="1" as="geometry" />
        </mxCell>
        <mxCell id="NFw2SGily9_NahTFV_Ep-42" value="" style="edgeStyle=orthogonalEdgeStyle;rounded=0;orthogonalLoop=1;jettySize=auto;html=1;" edge="1" parent="NFw2SGily9_NahTFV_Ep-64" source="NFw2SGily9_NahTFV_Ep-37" target="NFw2SGily9_NahTFV_Ep-41">
          <mxGeometry relative="1" as="geometry" />
        </mxCell>
        <mxCell id="NFw2SGily9_NahTFV_Ep-63" value="" style="endArrow=none;dashed=1;html=1;dashPattern=1 3;strokeWidth=2;rounded=0;" edge="1" parent="1" source="NFw2SGily9_NahTFV_Ep-46" target="NFw2SGily9_NahTFV_Ep-44">
          <mxGeometry width="50" height="50" relative="1" as="geometry">
            <mxPoint x="500" y="730" as="sourcePoint" />
            <mxPoint x="370" y="730" as="targetPoint" />
          </mxGeometry>
        </mxCell>
        <mxCell id="NFw2SGily9_NahTFV_Ep-43" value="" style="endArrow=none;dashed=1;html=1;dashPattern=1 3;strokeWidth=2;rounded=0;" edge="1" parent="1" source="NFw2SGily9_NahTFV_Ep-39" target="NFw2SGily9_NahTFV_Ep-41">
          <mxGeometry width="50" height="50" relative="1" as="geometry">
            <mxPoint x="760" y="800" as="sourcePoint" />
            <mxPoint x="810" y="750" as="targetPoint" />
          </mxGeometry>
        </mxCell>
        <mxCell id="NFw2SGily9_NahTFV_Ep-38" value="" style="endArrow=none;dashed=1;html=1;dashPattern=1 3;strokeWidth=2;rounded=0;" edge="1" parent="1" source="NFw2SGily9_NahTFV_Ep-35" target="NFw2SGily9_NahTFV_Ep-37">
          <mxGeometry width="50" height="50" relative="1" as="geometry">
            <mxPoint x="140" y="760" as="sourcePoint" />
            <mxPoint x="190" y="710" as="targetPoint" />
          </mxGeometry>
        </mxCell>
      </root>
    </mxGraphModel>
  </diagram>
</mxfile>
